<svg xmlns="http://www.w3.org/2000/svg" xmlns:xlink="http://www.w3.org/1999/xlink" width="500" zoomAndPan="magnify" viewBox="0 0 375 374.999991" height="500" preserveAspectRatio="xMidYMid meet" version="1.0"><defs><clipPath id="e845b4f606"><path d="M 149 103 L 157 103 L 157 112 L 149 112 Z M 149 103 " clip-rule="nonzero"/></clipPath><clipPath id="49d949949e"><path d="M 76.113281 11.375 L 337.570312 262.105469 L 257.109375 346.011719 L -4.347656 95.28125 Z M 76.113281 11.375 " clip-rule="nonzero"/></clipPath><clipPath id="ba4e8abf3d"><path d="M 76.113281 11.375 L 337.570312 262.105469 L 257.109375 346.011719 L -4.347656 95.28125 Z M 76.113281 11.375 " clip-rule="nonzero"/></clipPath><clipPath id="efadbbe7ad"><path d="M 139 113 L 148 113 L 148 122 L 139 122 Z M 139 113 " clip-rule="nonzero"/></clipPath><clipPath id="1e54dc2880"><path d="M 76.113281 11.375 L 337.570312 262.105469 L 257.109375 346.011719 L -4.347656 95.28125 Z M 76.113281 11.375 " clip-rule="nonzero"/></clipPath><clipPath id="7797642e49"><path d="M 76.113281 11.375 L 337.570312 262.105469 L 257.109375 346.011719 L -4.347656 95.28125 Z M 76.113281 11.375 " clip-rule="nonzero"/></clipPath><clipPath id="355778eaf1"><path d="M 129 123 L 138 123 L 138 132 L 129 132 Z M 129 123 " clip-rule="nonzero"/></clipPath><clipPath id="6cdb86d694"><path d="M 76.113281 11.375 L 337.570312 262.105469 L 257.109375 346.011719 L -4.347656 95.28125 Z M 76.113281 11.375 " clip-rule="nonzero"/></clipPath><clipPath id="6973c65fdc"><path d="M 76.113281 11.375 L 337.570312 262.105469 L 257.109375 346.011719 L -4.347656 95.28125 Z M 76.113281 11.375 " clip-rule="nonzero"/></clipPath><clipPath id="a7b8df68f9"><path d="M 119 133 L 128 133 L 128 142 L 119 142 Z M 119 133 " clip-rule="nonzero"/></clipPath><clipPath id="d9b8986456"><path d="M 76.113281 11.375 L 337.570312 262.105469 L 257.109375 346.011719 L -4.347656 95.28125 Z M 76.113281 11.375 " clip-rule="nonzero"/></clipPath><clipPath id="afcc3005fa"><path d="M 76.113281 11.375 L 337.570312 262.105469 L 257.109375 346.011719 L -4.347656 95.28125 Z M 76.113281 11.375 " clip-rule="nonzero"/></clipPath><clipPath id="add0fa17a8"><path d="M 110 143 L 118 143 L 118 152 L 110 152 Z M 110 143 " clip-rule="nonzero"/></clipPath><clipPath id="c894ca7686"><path d="M 76.113281 11.375 L 337.570312 262.105469 L 257.109375 346.011719 L -4.347656 95.28125 Z M 76.113281 11.375 " clip-rule="nonzero"/></clipPath><clipPath id="2c80115f53"><path d="M 76.113281 11.375 L 337.570312 262.105469 L 257.109375 346.011719 L -4.347656 95.28125 Z M 76.113281 11.375 " clip-rule="nonzero"/></clipPath><clipPath id="170b13cf60"><path d="M 90 163 L 98 163 L 98 172 L 90 172 Z M 90 163 " clip-rule="nonzero"/></clipPath><clipPath id="72e9469e4b"><path d="M 76.113281 11.375 L 337.570312 262.105469 L 257.109375 346.011719 L -4.347656 95.28125 Z M 76.113281 11.375 " clip-rule="nonzero"/></clipPath><clipPath id="a9ad68a47e"><path d="M 76.113281 11.375 L 337.570312 262.105469 L 257.109375 346.011719 L -4.347656 95.28125 Z M 76.113281 11.375 " clip-rule="nonzero"/></clipPath><clipPath id="172488abe2"><path d="M 100 153 L 108 153 L 108 162 L 100 162 Z M 100 153 " clip-rule="nonzero"/></clipPath><clipPath id="fd3e20371b"><path d="M 76.113281 11.375 L 337.570312 262.105469 L 257.109375 346.011719 L -4.347656 95.28125 Z M 76.113281 11.375 " clip-rule="nonzero"/></clipPath><clipPath id="36cfabf3fc"><path d="M 76.113281 11.375 L 337.570312 262.105469 L 257.109375 346.011719 L -4.347656 95.28125 Z M 76.113281 11.375 " clip-rule="nonzero"/></clipPath><clipPath id="4b470a64ac"><path d="M 0 13 L 335 13 L 335 345 L 0 345 Z M 0 13 " clip-rule="nonzero"/></clipPath><clipPath id="21ba67ed0d"><path d="M 76.113281 11.375 L 337.570312 262.105469 L 257.109375 346.011719 L -4.347656 95.28125 Z M 76.113281 11.375 " clip-rule="nonzero"/></clipPath><clipPath id="84f58c3c66"><path d="M 76.113281 11.375 L 337.570312 262.105469 L 257.109375 346.011719 L -4.347656 95.28125 Z M 76.113281 11.375 " clip-rule="nonzero"/></clipPath><clipPath id="2ea9fc2088"><path d="M 281 162 L 289 162 L 289 170 L 281 170 Z M 281 162 " clip-rule="nonzero"/></clipPath><clipPath id="dfeb7afb01"><path d="M 379.078125 89.976562 L 133.183594 346.71875 L 50.851562 267.867188 L 296.746094 11.125 Z M 379.078125 89.976562 " clip-rule="nonzero"/></clipPath><clipPath id="07681723c1"><path d="M 379.078125 89.976562 L 133.183594 346.71875 L 50.851562 267.867188 L 296.746094 11.125 Z M 379.078125 89.976562 " clip-rule="nonzero"/></clipPath><clipPath id="69acd4f4fd"><path d="M 271 152 L 279 152 L 279 160 L 271 160 Z M 271 152 " clip-rule="nonzero"/></clipPath><clipPath id="f224037fc7"><path d="M 379.078125 89.976562 L 133.183594 346.71875 L 50.851562 267.867188 L 296.746094 11.125 Z M 379.078125 89.976562 " clip-rule="nonzero"/></clipPath><clipPath id="214a7b6bbb"><path d="M 379.078125 89.976562 L 133.183594 346.71875 L 50.851562 267.867188 L 296.746094 11.125 Z M 379.078125 89.976562 " clip-rule="nonzero"/></clipPath><clipPath id="bec97b7f64"><path d="M 261 142 L 269 142 L 269 150 L 261 150 Z M 261 142 " clip-rule="nonzero"/></clipPath><clipPath id="570715ad6c"><path d="M 379.078125 89.976562 L 133.183594 346.71875 L 50.851562 267.867188 L 296.746094 11.125 Z M 379.078125 89.976562 " clip-rule="nonzero"/></clipPath><clipPath id="56f174af87"><path d="M 379.078125 89.976562 L 133.183594 346.71875 L 50.851562 267.867188 L 296.746094 11.125 Z M 379.078125 89.976562 " clip-rule="nonzero"/></clipPath><clipPath id="119104027b"><path d="M 251 133 L 260 133 L 260 141 L 251 141 Z M 251 133 " clip-rule="nonzero"/></clipPath><clipPath id="8ac76fbec2"><path d="M 379.078125 89.976562 L 133.183594 346.71875 L 50.851562 267.867188 L 296.746094 11.125 Z M 379.078125 89.976562 " clip-rule="nonzero"/></clipPath><clipPath id="53e6299738"><path d="M 379.078125 89.976562 L 133.183594 346.71875 L 50.851562 267.867188 L 296.746094 11.125 Z M 379.078125 89.976562 " clip-rule="nonzero"/></clipPath><clipPath id="be1aa821b0"><path d="M 242 123 L 250 123 L 250 131 L 242 131 Z M 242 123 " clip-rule="nonzero"/></clipPath><clipPath id="c398b1bdcd"><path d="M 379.078125 89.976562 L 133.183594 346.71875 L 50.851562 267.867188 L 296.746094 11.125 Z M 379.078125 89.976562 " clip-rule="nonzero"/></clipPath><clipPath id="77a48ca74c"><path d="M 379.078125 89.976562 L 133.183594 346.71875 L 50.851562 267.867188 L 296.746094 11.125 Z M 379.078125 89.976562 " clip-rule="nonzero"/></clipPath><clipPath id="c9d28f3699"><path d="M 222 104 L 230 104 L 230 112 L 222 112 Z M 222 104 " clip-rule="nonzero"/></clipPath><clipPath id="e9ad8e86a3"><path d="M 379.078125 89.976562 L 133.183594 346.71875 L 50.851562 267.867188 L 296.746094 11.125 Z M 379.078125 89.976562 " clip-rule="nonzero"/></clipPath><clipPath id="52eb3d8a53"><path d="M 379.078125 89.976562 L 133.183594 346.71875 L 50.851562 267.867188 L 296.746094 11.125 Z M 379.078125 89.976562 " clip-rule="nonzero"/></clipPath><clipPath id="92926214c8"><path d="M 231 113 L 240 113 L 240 122 L 231 122 Z M 231 113 " clip-rule="nonzero"/></clipPath><clipPath id="be4829ddd8"><path d="M 379.078125 89.976562 L 133.183594 346.71875 L 50.851562 267.867188 L 296.746094 11.125 Z M 379.078125 89.976562 " clip-rule="nonzero"/></clipPath><clipPath id="df77570c6b"><path d="M 379.078125 89.976562 L 133.183594 346.71875 L 50.851562 267.867188 L 296.746094 11.125 Z M 379.078125 89.976562 " clip-rule="nonzero"/></clipPath><clipPath id="48307fecec"><path d="M 51 12 L 375 12 L 375 344 L 51 344 Z M 51 12 " clip-rule="nonzero"/></clipPath><clipPath id="4dc398885f"><path d="M 379.078125 89.976562 L 133.183594 346.71875 L 50.851562 267.867188 L 296.746094 11.125 Z M 379.078125 89.976562 " clip-rule="nonzero"/></clipPath><clipPath id="7b89a495f2"><path d="M 379.078125 89.976562 L 133.183594 346.71875 L 50.851562 267.867188 L 296.746094 11.125 Z M 379.078125 89.976562 " clip-rule="nonzero"/></clipPath></defs><g clip-path="url(#e845b4f606)"><g clip-path="url(#49d949949e)"><g clip-path="url(#ba4e8abf3d)"><path fill="#545454" d="M 155.601562 103.929688 C 153.289062 105.503906 151.457031 107.65625 149.738281 109.804688 C 149.109375 110.578125 150.125 111.550781 150.875 110.890625 C 153.007812 109.144531 155.082031 107.222656 156.617188 104.902344 C 157.074219 104.304688 156.179688 103.445312 155.601562 103.929688 Z M 155.601562 103.929688 " fill-opacity="1" fill-rule="nonzero"/></g></g></g><g clip-path="url(#efadbbe7ad)"><g clip-path="url(#1e54dc2880)"><g clip-path="url(#7797642e49)"><path fill="#545454" d="M 146.125 113.691406 C 143.515625 115.214844 141.402344 118.019531 139.695312 120.519531 C 139.238281 121.113281 140.308594 121.910156 140.824219 121.371094 C 142.773438 119.101562 145.25 116.996094 146.960938 114.496094 C 147.183594 113.902344 146.527344 113.390625 146.125 113.691406 Z M 146.125 113.691406 " fill-opacity="1" fill-rule="nonzero"/></g></g></g><g clip-path="url(#355778eaf1)"><g clip-path="url(#6cdb86d694)"><g clip-path="url(#6973c65fdc)"><path fill="#545454" d="M 136.007812 123.882812 C 133.695312 125.457031 131.863281 127.609375 130.148438 129.757812 C 129.515625 130.53125 130.53125 131.507812 131.28125 130.84375 C 133.414062 129.097656 135.488281 127.175781 137.023438 124.855469 C 137.480469 124.257812 136.589844 123.519531 136.007812 123.882812 Z M 136.007812 123.882812 " fill-opacity="1" fill-rule="nonzero"/></g></g></g><g clip-path="url(#a7b8df68f9)"><g clip-path="url(#d9b8986456)"><g clip-path="url(#afcc3005fa)"><path fill="#545454" d="M 126.53125 133.648438 C 123.921875 135.171875 121.808594 137.972656 120.101562 140.472656 C 119.644531 141.066406 120.714844 141.863281 121.230469 141.324219 C 123.179688 139.054688 125.65625 136.949219 127.367188 134.449219 C 127.53125 133.917969 126.9375 133.460938 126.53125 133.648438 Z M 126.53125 133.648438 " fill-opacity="1" fill-rule="nonzero"/></g></g></g><g clip-path="url(#add0fa17a8)"><g clip-path="url(#c894ca7686)"><g clip-path="url(#2c80115f53)"><path fill="#545454" d="M 116.359375 143.894531 C 114.046875 145.472656 112.210938 147.621094 110.496094 149.769531 C 109.867188 150.546875 110.882812 151.519531 111.628906 150.859375 C 113.765625 149.109375 115.835938 147.1875 117.375 144.871094 C 117.832031 144.273438 116.9375 143.53125 116.359375 143.894531 Z M 116.359375 143.894531 " fill-opacity="1" fill-rule="nonzero"/></g></g></g><g clip-path="url(#170b13cf60)"><g clip-path="url(#72e9469e4b)"><g clip-path="url(#a9ad68a47e)"><path fill="#545454" d="M 96.707031 163.910156 C 94.394531 165.484375 92.5625 167.636719 90.84375 169.785156 C 90.214844 170.558594 91.230469 171.53125 91.980469 170.871094 C 94.113281 169.125 96.1875 167.203125 97.722656 164.882812 C 98.179688 164.285156 97.34375 163.484375 96.707031 163.910156 Z M 96.707031 163.910156 " fill-opacity="1" fill-rule="nonzero"/></g></g></g><g clip-path="url(#172488abe2)"><g clip-path="url(#fd3e20371b)"><g clip-path="url(#36cfabf3fc)"><path fill="#545454" d="M 106.878906 153.660156 C 104.273438 155.183594 102.160156 157.984375 100.449219 160.484375 C 99.992188 161.082031 101.0625 161.878906 101.578125 161.339844 C 103.527344 159.066406 106.007812 156.960938 107.714844 154.460938 C 107.941406 153.988281 107.34375 153.414062 106.878906 153.660156 Z M 106.878906 153.660156 " fill-opacity="1" fill-rule="nonzero"/></g></g></g><g clip-path="url(#4b470a64ac)"><g clip-path="url(#21ba67ed0d)"><g clip-path="url(#84f58c3c66)"><path fill="#000000" d="M 288.898438 310.503906 C 289.1875 310.207031 289.292969 309.617188 288.992188 309.214844 C 287.425781 307.023438 285.980469 305.0625 285.867188 302.308594 C 285.625 298.859375 287.789062 295.761719 290.328125 293.597656 C 294.535156 290.042969 300.03125 289.335938 304.882812 291.804688 C 305.296875 291.972656 305.882812 291.957031 306.226562 291.597656 C 315.527344 281.664062 324.886719 271.785156 334.183594 261.847656 C 334.585938 261.429688 334.574219 260.726562 334.15625 260.324219 C 315.523438 242.339844 296.886719 224.355469 278.253906 206.371094 C 248.574219 177.796875 218.953125 149.273438 189.273438 120.695312 C 182.523438 114.226562 175.71875 107.699219 169.027344 101.167969 C 168.609375 100.765625 167.964844 100.839844 167.621094 101.199219 C 162.203125 105.773438 154.042969 96.109375 159.613281 93.289062 C 160.253906 92.984375 160.292969 92.101562 159.816406 91.644531 C 135.289062 68.929688 110.761719 46.214844 86.179688 23.558594 C 82.65625 20.296875 79.136719 17.035156 75.675781 13.832031 C 75.257812 13.429688 74.671875 13.441406 74.328125 13.800781 C 66.292969 22.421875 58.253906 31.039062 50.21875 39.660156 C 49.988281 39.898438 49.882812 40.371094 50.121094 40.714844 C 53.613281 45.441406 51.316406 53.816406 47.523438 57.769531 C 43.390625 62.082031 36.136719 62.828125 30.988281 60.074219 C 30.691406 59.902344 30.28125 59.972656 30.050781 60.210938 C 24.082031 66.671875 18.054688 73.078125 12.089844 79.660156 L -2.441406 94.8125 C -2.84375 95.230469 -3.066406 95.820312 -2.527344 96.335938 C 21.652344 119.410156 45.839844 142.605469 69.964844 165.738281 C 73.425781 169.058594 76.890625 172.382812 80.292969 175.644531 C 80.652344 175.988281 81.121094 175.980469 81.527344 175.792969 C 83.847656 174.570312 87.820312 174.011719 89.230469 177.203125 C 89.96875 178.945312 88.960938 181.429688 88.054688 182.855469 C 87.824219 183.210938 87.953125 183.796875 88.253906 184.082031 C 107.300781 202.230469 126.285156 220.324219 145.277344 238.535156 C 175.371094 267.28125 205.460938 295.90625 235.554688 324.652344 C 242.484375 331.292969 249.527344 337.933594 256.453125 344.578125 C 256.871094 344.976562 257.574219 344.960938 257.976562 344.542969 C 268.242188 333.121094 278.511719 321.8125 288.898438 310.503906 Z M 220.867188 307.574219 C 196.445312 284.269531 172.023438 260.96875 147.601562 237.664062 C 130.40625 221.289062 113.210938 204.914062 96.015625 188.421875 L 96.191406 188.59375 L 90.511719 182.800781 C 90.910156 182.148438 91.527344 180.785156 91.527344 180.667969 C 92.285156 177.605469 90.691406 173.890625 87.625 172.902344 C 86.5625 172.574219 85.445312 172.425781 84.335938 172.507812 C 83.984375 172.515625 81.597656 173.332031 81.429688 173.746094 L 76.234375 168.761719 C 71.753906 164.46875 67.21875 160.117188 62.738281 155.820312 C 41.898438 135.835938 21.058594 115.96875 0.21875 95.980469 C -0.140625 95.636719 -0.496094 95.296875 -0.855469 94.953125 C 9.371094 84.410156 19.359375 73.753906 29.402344 63.039062 C 29.691406 62.738281 30.601562 61.429688 31.011719 61.363281 C 30.71875 61.425781 32.023438 62.21875 32.320312 62.386719 C 33.625 63.179688 35.792969 63.1875 37.320312 63.269531 C 43.53125 63.367188 49.039062 60.253906 51.625 54.570312 C 52.917969 51.789062 53.558594 48.609375 53.382812 45.566406 C 53.359375 44.511719 53.324219 42.636719 52.78125 41.769531 C 53.082031 42.289062 52.289062 40.609375 51.816406 40.382812 C 52.152344 39.671875 53.542969 38.703125 53.882812 38.226562 C 55.320312 36.730469 56.699219 35.292969 58.074219 33.738281 C 63.757812 27.808594 69.386719 21.824219 75.011719 15.835938 C 99.242188 38.382812 123.53125 60.871094 147.816406 83.359375 C 151.039062 86.332031 154.203125 89.25 157.425781 92.226562 C 151.65625 96.925781 160.957031 108.027344 168.246094 103.292969 C 186.640625 121.046875 205.097656 138.859375 223.492188 156.617188 C 253.113281 185.253906 282.734375 213.773438 312.417969 242.351562 C 318.925781 248.59375 325.375 254.894531 331.886719 261.136719 C 327.292969 266.046875 322.703125 270.953125 318.050781 275.804688 C 314.835938 279.273438 311.621094 282.628906 308.40625 286.101562 C 307.488281 287.058594 306.570312 288.25 305.59375 289.152344 C 305.480469 289.273438 305.195312 289.6875 305.019531 289.867188 C 305.132812 289.628906 304.011719 289.128906 303.65625 288.902344 C 297.851562 285.75 289.675781 290.328125 286.308594 294.917969 C 284.597656 297.300781 283.308594 300.199219 283.714844 303.121094 C 283.917969 304.582031 284.472656 305.917969 285.199219 307.1875 C 285.507812 307.828125 287.308594 310.128906 287.351562 309.25 C 287.203125 310.71875 283.164062 313.855469 282.1875 314.875 C 278.976562 318.464844 275.761719 321.933594 272.550781 325.523438 C 267.441406 331.085938 262.339844 336.769531 257.230469 342.332031 C 245.050781 330.652344 232.929688 319.144531 220.867188 307.574219 Z M 220.867188 307.574219 " fill-opacity="1" fill-rule="nonzero"/></g></g></g><g clip-path="url(#2ea9fc2088)"><g clip-path="url(#dfeb7afb01)"><g clip-path="url(#07681723c1)"><path fill="#545454" d="M 288.304688 168.046875 C 286.761719 165.78125 284.648438 163.984375 282.542969 162.304688 C 281.78125 161.6875 280.824219 162.683594 281.476562 163.417969 C 283.191406 165.507812 285.074219 167.539062 287.351562 169.046875 C 287.9375 169.492188 288.777344 168.613281 288.304688 168.046875 Z M 288.304688 168.046875 " fill-opacity="1" fill-rule="nonzero"/></g></g></g><g clip-path="url(#69acd4f4fd)"><g clip-path="url(#f224037fc7)"><g clip-path="url(#214a7b6bbb)"><path fill="#545454" d="M 278.726562 158.757812 C 277.230469 156.203125 274.480469 154.132812 272.027344 152.457031 C 271.441406 152.011719 270.664062 153.0625 271.191406 153.566406 C 273.417969 155.476562 275.484375 157.90625 277.9375 159.582031 C 278.519531 159.796875 279.019531 159.15625 278.726562 158.757812 Z M 278.726562 158.757812 " fill-opacity="1" fill-rule="nonzero"/></g></g></g><g clip-path="url(#bec97b7f64)"><g clip-path="url(#570715ad6c)"><g clip-path="url(#56f174af87)"><path fill="#545454" d="M 268.726562 148.847656 C 267.179688 146.578125 265.070312 144.78125 262.960938 143.101562 C 262.203125 142.484375 261.246094 143.480469 261.894531 144.214844 C 263.609375 146.308594 265.496094 148.339844 267.773438 149.84375 C 268.355469 150.292969 269.085938 149.414062 268.726562 148.847656 Z M 268.726562 148.847656 " fill-opacity="1" fill-rule="nonzero"/></g></g></g><g clip-path="url(#119104027b)"><g clip-path="url(#8ac76fbec2)"><g clip-path="url(#53e6299738)"><path fill="#545454" d="M 259.144531 139.558594 C 257.648438 137 254.902344 134.929688 252.449219 133.257812 C 251.863281 132.808594 251.082031 133.859375 251.613281 134.367188 C 253.839844 136.273438 255.90625 138.703125 258.359375 140.378906 C 258.878906 140.539062 259.328125 139.957031 259.144531 139.558594 Z M 259.144531 139.558594 " fill-opacity="1" fill-rule="nonzero"/></g></g></g><g clip-path="url(#be1aa821b0)"><g clip-path="url(#c398b1bdcd)"><g clip-path="url(#77a48ca74c)"><path fill="#545454" d="M 249.089844 129.589844 C 247.542969 127.320312 245.433594 125.523438 243.324219 123.84375 C 242.5625 123.226562 241.609375 124.222656 242.257812 124.957031 C 243.972656 127.050781 245.859375 129.082031 248.132812 130.585938 C 248.71875 131.035156 249.445312 130.15625 249.089844 129.589844 Z M 249.089844 129.589844 " fill-opacity="1" fill-rule="nonzero"/></g></g></g><g clip-path="url(#c9d28f3699)"><g clip-path="url(#e9ad8e86a3)"><g clip-path="url(#52eb3d8a53)"><path fill="#545454" d="M 229.449219 110.332031 C 227.90625 108.0625 225.792969 106.265625 223.6875 104.585938 C 222.925781 103.96875 221.96875 104.964844 222.621094 105.699219 C 224.332031 107.792969 226.21875 109.820312 228.496094 111.328125 C 229.082031 111.777344 229.867188 110.953125 229.449219 110.332031 Z M 229.449219 110.332031 " fill-opacity="1" fill-rule="nonzero"/></g></g></g><g clip-path="url(#92926214c8)"><g clip-path="url(#be4829ddd8)"><g clip-path="url(#df77570c6b)"><path fill="#545454" d="M 239.507812 120.300781 C 238.011719 117.742188 235.261719 115.671875 232.8125 114 C 232.226562 113.550781 231.445312 114.601562 231.972656 115.109375 C 234.203125 117.015625 236.269531 119.445312 238.722656 121.121094 C 239.1875 121.339844 239.746094 120.753906 239.507812 120.300781 Z M 239.507812 120.300781 " fill-opacity="1" fill-rule="nonzero"/></g></g></g><g clip-path="url(#48307fecec)"><g clip-path="url(#4dc398885f)"><g clip-path="url(#7b89a495f2)"><path fill="#000000" d="M 85.691406 299.019531 C 85.984375 299.300781 86.5625 299.402344 86.957031 299.109375 C 89.109375 297.570312 91.03125 296.148438 93.730469 296.035156 C 97.117188 295.796875 100.152344 297.917969 102.28125 300.402344 C 105.765625 304.527344 106.460938 309.917969 104.039062 314.679688 C 103.878906 315.085938 103.890625 315.660156 104.242188 316 C 113.992188 325.113281 123.6875 334.285156 133.4375 343.398438 C 133.847656 343.792969 134.539062 343.777344 134.929688 343.367188 C 152.566406 325.070312 170.203125 306.773438 187.839844 288.472656 C 215.867188 259.328125 243.839844 230.242188 271.867188 201.097656 C 278.210938 194.46875 284.613281 187.785156 291.019531 181.214844 C 291.414062 180.804688 291.339844 180.171875 290.988281 179.835938 C 286.5 174.523438 295.976562 166.511719 298.742188 171.972656 C 299.046875 172.601562 299.910156 172.640625 300.359375 172.171875 C 322.636719 148.085938 344.914062 124.003906 367.132812 99.863281 C 370.332031 96.40625 373.527344 92.949219 376.671875 89.550781 C 377.0625 89.140625 377.050781 88.5625 376.699219 88.226562 C 368.242188 80.351562 359.785156 72.476562 351.328125 64.601562 C 351.09375 64.375 350.628906 64.269531 350.289062 64.507812 C 345.652344 67.9375 337.441406 65.691406 333.5625 61.976562 C 329.328125 57.925781 328.59375 50.8125 331.296875 45.753906 C 331.460938 45.464844 331.394531 45.0625 331.160156 44.835938 C 324.820312 38.988281 318.535156 33.082031 312.078125 27.234375 L 297.210938 12.996094 C 296.796875 12.601562 296.21875 12.382812 295.710938 12.910156 C 273.082031 36.65625 250.335938 60.40625 227.648438 84.097656 C 224.390625 87.496094 221.132812 90.898438 217.933594 94.242188 C 217.597656 94.59375 217.605469 95.050781 217.789062 95.449219 C 218.988281 97.726562 219.539062 101.625 216.40625 103.007812 C 214.699219 103.734375 212.261719 102.75 210.863281 101.859375 C 210.511719 101.636719 209.941406 101.761719 209.660156 102.054688 C 191.859375 120.757812 174.113281 139.402344 156.253906 158.050781 C 128.066406 187.601562 99.988281 217.152344 71.800781 246.703125 C 65.285156 253.503906 58.773438 260.421875 52.257812 267.222656 C 51.867188 267.632812 51.882812 268.324219 52.292969 268.71875 C 63.5 278.777344 74.59375 288.839844 85.691406 299.019531 Z M 88.546875 232.273438 C 111.402344 208.292969 134.257812 184.3125 157.113281 160.332031 C 173.171875 143.445312 189.230469 126.5625 205.40625 109.671875 L 205.238281 109.851562 L 210.917969 104.273438 C 211.558594 104.660156 212.894531 105.265625 213.007812 105.265625 C 216.015625 106.007812 219.660156 104.4375 220.625 101.429688 C 220.945312 100.386719 221.09375 99.292969 221.011719 98.203125 C 221.003906 97.855469 220.203125 95.515625 219.796875 95.351562 L 224.683594 90.25 C 228.894531 85.851562 233.164062 81.394531 237.375 77 C 256.976562 56.535156 276.460938 36.070312 296.0625 15.605469 C 296.398438 15.253906 296.734375 14.902344 297.070312 14.550781 C 307.417969 24.570312 317.871094 34.359375 328.386719 44.203125 C 328.679688 44.484375 329.964844 45.378906 330.03125 45.78125 C 329.96875 45.496094 329.191406 46.773438 329.027344 47.066406 C 328.25 48.347656 328.242188 50.472656 328.160156 51.96875 C 328.066406 58.066406 331.121094 63.464844 336.699219 65.996094 C 339.429688 67.261719 342.546875 67.886719 345.535156 67.710938 C 346.566406 67.6875 348.40625 67.652344 349.257812 67.117188 C 348.746094 67.414062 350.394531 66.632812 350.617188 66.167969 C 351.3125 66.5 352.261719 67.859375 352.730469 68.195312 C 354.199219 69.601562 355.609375 70.953125 357.136719 72.300781 C 362.953125 77.875 368.828125 83.386719 374.703125 88.898438 C 352.589844 112.691406 330.539062 136.542969 308.484375 160.390625 C 305.566406 163.554688 302.703125 166.660156 299.789062 169.824219 C 295.175781 164.171875 284.285156 173.304688 288.933594 180.453125 C 271.519531 198.515625 254.050781 216.636719 236.640625 234.699219 C 208.554688 263.789062 180.582031 292.878906 152.554688 322.023438 C 146.433594 328.414062 140.253906 334.75 134.132812 341.140625 C 129.316406 336.640625 124.5 332.140625 119.742188 327.582031 C 116.335938 324.433594 113.042969 321.28125 109.636719 318.132812 C 108.699219 317.230469 107.527344 316.335938 106.644531 315.375 C 106.527344 315.261719 106.117188 314.984375 105.941406 314.816406 C 106.171875 314.925781 106.664062 313.824219 106.886719 313.472656 C 109.976562 307.777344 105.484375 299.761719 100.984375 296.464844 C 98.644531 294.785156 95.800781 293.523438 92.933594 293.925781 C 91.5 294.128906 90.191406 294.671875 88.941406 295.386719 C 88.316406 295.6875 86.058594 297.457031 86.921875 297.5 C 85.480469 297.355469 82.402344 293.394531 81.402344 292.4375 C 77.882812 289.289062 74.476562 286.140625 70.957031 282.996094 C 65.496094 277.988281 59.921875 272.988281 54.460938 267.984375 C 65.917969 256.019531 77.203125 244.121094 88.546875 232.273438 Z M 88.546875 232.273438 " fill-opacity="1" fill-rule="nonzero"/></g></g></g></svg>